<?xml version="1.0" encoding="UTF-8"?><!DOCTYPE svg PUBLIC "-//W3C//DTD SVG 1.1//EN" "http://www.w3.org/Graphics/SVG/1.1/DTD/svg11.dtd"><svg xmlns="http://www.w3.org/2000/svg" xmlns:xlink="http://www.w3.org/1999/xlink"><symbol viewBox="0 0 197.05 196.86" id="Kaspa-Icon-Green-on-White" xmlns="http://www.w3.org/2000/svg"><g data-name="Layer 1"><circle cx="98.52" cy="98.43" r="41.03" style="fill:#fff;stroke-width:0"/><path d="M149.42 76.34c-2.8-6.76-7.22-13.03-12.32-18.12-5.08-5.1-11.61-8.91-18.38-11.71-6.51-2.71-13.78-4.07-21.28-4.07s-15.21.27-21.72 2.98c-6.76 2.8-12.42 8.12-17.51 13.22-5.1 5.1-11.02 10.51-13.82 17.26-2.71 6.53-1.83 14.48-1.83 21.99s.55 14.85 3.26 21.38c2.8 6.76 8.52 11.54 13.6 16.64 5.1 5.1 9.71 11.18 16.47 13.98 6.53 2.71 14.04 4.55 21.54 4.55s14.87-2.22 21.4-4.94c6.75-2.8 12.86-7.18 17.96-12.27 5.1-5.1 9.19-11.32 12.01-18.08 2.7-6.51 5.79-13.76 5.79-21.26s-2.48-15-5.19-21.53Zm-36.26 53.49-11.88-1.75 3.39-23-24.87 19.16-7.32-9.56 21.82-16.8-21.82-16.81 7.32-9.56 24.87 19.16-3.39-22.99 11.88-1.77 4.73 31.98-4.73 31.96Z" style="fill:#70c7ba;stroke-width:0"/><path transform="rotate(90 98.525 98.435)" style="stroke-width:0;fill:none" d="M.09-.09h196.86v197.05H.09z"/></g></symbol><symbol viewBox="0 0 48 48" id="account" xmlns="http://www.w3.org/2000/svg"><path d="M0 0h48v48H0z" fill="none"/><path d="M33.843 26.914 24 36l-9.843-9.086C8.674 30.421 5 36.749 5 44h38c0-7.251-3.674-13.579-9.157-17.086z"/><path d="M24 28c3.55 0 6.729-1.55 8.926-4A11.94 11.94 0 0 0 36 16c0-6.627-5.373-12-12-12S12 9.373 12 16a11.94 11.94 0 0 0 3.074 8c2.197 2.45 5.376 4 8.926 4z"/></symbol><symbol viewBox="0 0 24 24" fill="none" id="chevron-down" xmlns="http://www.w3.org/2000/svg"><path d="m19 9-7 7-7-7" stroke="#000" stroke-width="2" stroke-linecap="round" stroke-linejoin="round"/></symbol><symbol viewBox="-5.5 0 26 26" id="chevron-left" xmlns="http://www.w3.org/2000/svg"><path d="m5.115 13 9.256-8.4c.831-.83.831-2.17 0-3a2.11 2.11 0 0 0-3.008 0L.596 11.36c-.45.45-.648 1.05-.611 1.64-.037.59.161 1.19.611 1.64l10.767 9.76a2.11 2.11 0 0 0 3.008 0c.831-.83.831-2.17 0-3L5.115 13" fill="#000" fill-rule="evenodd"/></symbol><symbol viewBox="-5.5 0 26 26" id="chevron-right" xmlns="http://www.w3.org/2000/svg"><path d="M14.404 11.36 3.637 1.6a2.11 2.11 0 0 0-3.008 0 2.117 2.117 0 0 0 0 3L9.885 13 .629 21.4a2.117 2.117 0 0 0 0 3c.83.84 2.177.84 3.008 0l10.767-9.76c.45-.45.648-1.05.611-1.64a2.115 2.115 0 0 0-.611-1.64" fill="#000" fill-rule="evenodd"/></symbol><symbol viewBox="0 0 24 24" fill="none" stroke="#000" stroke-linecap="round" id="chevron-right-mobile" xmlns="http://www.w3.org/2000/svg"><path d="m11 17 5-5-5-5"/></symbol><symbol viewBox="0 0 24 24" fill="none" id="chevron-up" xmlns="http://www.w3.org/2000/svg"><path d="m5 16 7-7 7 7" stroke="#000" stroke-width="2" stroke-linecap="round" stroke-linejoin="round"/></symbol><symbol viewBox="0 0 100 100" xml:space="preserve" id="cross" xmlns="http://www.w3.org/2000/svg"><path d="m53.691 50.609 13.467-13.467a2 2 0 1 0-2.828-2.828L50.863 47.781 37.398 34.314a2 2 0 1 0-2.828 2.828l13.465 13.467-14.293 14.293a2 2 0 1 0 2.828 2.828l14.293-14.293L65.156 67.73c.391.391.902.586 1.414.586s1.023-.195 1.414-.586a2 2 0 0 0 0-2.828L53.691 50.609z"/></symbol><symbol viewBox="0 0 16 16" id="dashboard" xmlns="http://www.w3.org/2000/svg"><path class="jcls-1" d="M2 2v12h12V2Zm11 11H3V3h10Z"/><path class="jcls-1" d="M9 9h3v1H9zM12 4H4v4h8Zm-1 3H5V5h6ZM8 9H4v3h4Zm-1 2H5v-1h2ZM9 11h3v1H9z"/></symbol><symbol viewBox="0 0 24 24" fill="none" id="dashboard-horz" xmlns="http://www.w3.org/2000/svg"><path fill-rule="evenodd" clip-rule="evenodd" d="M5.4 3h13.2A2.4 2.4 0 0 1 21 5.4v13.2a2.4 2.4 0 0 1-2.4 2.4H5.4A2.4 2.4 0 0 1 3 18.6V5.4A2.4 2.4 0 0 1 5.4 3ZM4 13v-2h16v2h-9v7H9v-7H4Z" fill="#000"/></symbol><symbol viewBox="0 0 24 24" id="dashboard-solid" xmlns="http://www.w3.org/2000/svg"><path fill-rule="evenodd" d="M10 14a1 1 0 0 1 1 1v6a1 1 0 0 1-1 1H3a1 1 0 0 1-1-1v-6a1 1 0 0 1 1-1h7Zm11-5a1 1 0 0 1 1 1v11a1 1 0 0 1-1 1h-7a1 1 0 0 1-1-1V10a1 1 0 0 1 1-1h7ZM10 2a1 1 0 0 1 1 1v8a1 1 0 0 1-1 1H3a1 1 0 0 1-1-1V3a1 1 0 0 1 1-1h7Zm11 0a1 1 0 0 1 1 1v3a1 1 0 0 1-1 1h-7a1 1 0 0 1-1-1V3a1 1 0 0 1 1-1h7Z"/></symbol><symbol viewBox="0 0 32 32" id="hamburger" xmlns="http://www.w3.org/2000/svg"><path d="M6.001 7.128 6 10.438l19.998-.005L26 7.124zm0 14.438L6 24.876l19.998-.006.002-3.308zm0-7.225L6 17.65l19.998-.004.002-3.309z"/></symbol><symbol viewBox="0 0 16 16" fill="none" id="home-svgrepo-com" xmlns="http://www.w3.org/2000/svg"><path d="M1 6v9h5v-4a2 2 0 1 1 4 0v4h5V6L8 0 1 6Z" fill="#000"/></symbol><symbol viewBox="0 0 24 24" fill="none" id="logout" xmlns="http://www.w3.org/2000/svg"><path fill-rule="evenodd" clip-rule="evenodd" d="M16.125 12a.75.75 0 0 0-.75-.75H4.402l1.961-1.68a.75.75 0 1 0-.976-1.14l-3.5 3a.75.75 0 0 0 0 1.14l3.5 3a.75.75 0 1 0 .976-1.14l-1.96-1.68h10.972a.75.75 0 0 0 .75-.75Z" fill="#1C274C"/><path d="M9.375 8c0 .702 0 1.053.169 1.306a1 1 0 0 0 .275.275c.253.169.604.169 1.306.169h4.25a2.25 2.25 0 0 1 0 4.5h-4.25c-.702 0-1.053 0-1.306.168a1 1 0 0 0-.275.276c-.169.253-.169.604-.169 1.306 0 2.828 0 4.243.879 5.121.878.879 2.292.879 5.12.879h1c2.83 0 4.243 0 5.122-.879.879-.878.879-2.293.879-5.121V8c0-2.828 0-4.243-.879-5.121C20.617 2 19.203 2 16.375 2h-1c-2.829 0-4.243 0-5.121.879-.879.878-.879 2.293-.879 5.121Z" fill="#1C274C"/></symbol><symbol viewBox="0 0 512 512" xml:space="preserve" id="logout-round" xmlns="http://www.w3.org/2000/svg"><path style="fill:#a9a8ae" d="M321.628 446.372c-63.339 0-122.346-31.372-157.846-83.917-7.196-10.651-4.394-25.117 6.256-32.313 10.654-7.194 25.117-4.394 32.313 6.256 26.832 39.717 71.421 63.429 119.277 63.429 79.306 0 143.827-64.521 143.827-143.827 0-79.307-64.521-143.827-143.827-143.827-47.998 0-92.66 23.819-119.471 63.716-7.173 10.67-21.63 13.504-32.298 6.335-10.667-7.17-13.503-21.63-6.335-32.298 35.475-52.784 94.579-84.298 158.104-84.298C426.598 65.628 512 151.028 512 256c0 104.971-85.402 190.372-190.372 190.372z"/><path style="fill:#64c37d" d="M349.088 232.727H79.458l30.09-30.089c9.089-9.089 9.089-23.824 0-32.912-9.087-9.087-23.824-9.087-32.912 0L6.817 239.543c-.034.034-.062.071-.096.105a23.506 23.506 0 0 0-1.429 1.578c-.14.169-.258.351-.391.523-.334.428-.667.858-.97 1.309-.099.152-.185.313-.284.467-.31.489-.616.979-.892 1.491-.061.112-.106.231-.166.344-.289.562-.568 1.13-.81 1.716-.033.079-.057.163-.092.244a23.095 23.095 0 0 0-.678 1.898c-.026.087-.042.175-.067.262-.186.638-.355 1.28-.487 1.939-.039.199-.057.402-.092.602-.096.548-.192 1.095-.248 1.655a23.636 23.636 0 0 0 .001 4.648c.057.568.155 1.122.251 1.676.034.192.048.389.088.58.133.669.306 1.322.493 1.969.023.076.036.157.061.233.2.656.436 1.297.69 1.93.028.068.048.141.076.209.25.6.534 1.181.83 1.753.051.101.095.206.147.307.285.529.602 1.038.923 1.542.088.137.163.281.251.414.321.479.673.936 1.029 1.389.113.146.214.299.332.442.483.588.995 1.153 1.53 1.691l69.815 69.814c4.544 4.544 10.501 6.817 16.457 6.817s11.913-2.273 16.455-6.817c9.089-9.089 9.089-23.824 0-32.912l-30.089-30.089h269.63c12.853 0 23.273-10.42 23.273-23.273s-10.417-23.272-23.27-23.272z"/></symbol><symbol id="market" viewBox="0 0 512 512" xml:space="preserve" xmlns="http://www.w3.org/2000/svg"><style>.pst0{fill:#000}</style><path class="pst0" d="M0 161.669h104.756v314.266H0zM313.498 245.524a43.114 43.114 0 0 0-8.593 25.872c0 11.632 4.502 22.425 12.676 30.588 8.173 8.174 19.068 12.675 30.588 12.675 11.529 0 22.424-4.501 30.588-12.562 15.406-15.406 16.767-39.601 3.98-56.572h-69.239zM293.274 408.836v67.15H398.03v-65.268c-15.816 5.658-32.675 8.593-49.861 8.593a149.08 149.08 0 0 1-54.895-10.475zM200.365 271.396c0-39.488 15.284-76.571 43.252-104.541 2.517-2.516 5.034-4.931 7.755-7.13V36.014H146.617v439.973h104.755v-92.818c-2.721-2.199-5.238-4.603-7.755-7.119-27.969-27.97-43.252-65.053-43.252-104.654z"/><path class="pst0" d="m502.509 389.604-56.521-55.058c12.051-18.638 18.577-40.346 18.577-63.109 0-31.14-12.102-60.377-34.066-82.341-21.964-21.964-51.201-34.066-82.342-34.066-31.14 0-60.388 12.102-82.341 34.066-21.974 21.964-34.066 51.201-34.066 82.341 0 31.141 12.092 60.388 34.056 82.352 21.964 21.963 51.212 34.066 82.352 34.066 22.762 0 44.48-6.537 63.119-18.588l55.038 56.501c10.26 12.368 25.401 13.104 37.104 1.401 11.714-11.693 11.458-27.335-.91-37.565zm-154.351-55.692c-16.686 0-32.378-6.506-44.184-18.302-11.794-11.794-18.291-27.488-18.291-44.173 0-16.684 6.497-32.367 18.291-44.163 11.806-11.796 27.489-18.302 44.184-18.302 16.675 0 32.368 6.506 44.163 18.302 24.358 24.358 24.358 63.989 0 88.346-11.795 11.796-27.478 18.292-44.163 18.292z"/></symbol><symbol viewBox="0 0 48 48" id="news" xmlns="http://www.w3.org/2000/svg"><g data-name="Layer 2"><g data-name="invisible box" fill="none"><path d="M0 0h48v48H0z"/><path d="M0 0h48v48H0z"/></g><path d="M42 4H6a2 2 0 0 0-2 2v36a2 2 0 0 0 2 2h36a2 2 0 0 0 2-2V6a2 2 0 0 0-2-2ZM12 16a2 2 0 0 1 2-2h6a2 2 0 0 1 2 2v8a2 2 0 0 1-2 2h-6a2 2 0 0 1-2-2Zm22 18H14a2 2 0 0 1 0-4h20a2 2 0 0 1 0 4Zm0-8h-6a2 2 0 0 1 0-4h6a2 2 0 0 1 0 4Zm0-8h-6a2 2 0 0 1 0-4h6a2 2 0 0 1 0 4Z" data-name="icons Q2"/></g></symbol><symbol viewBox="0 0 20 20" id="notifications" xmlns="http://www.w3.org/2000/svg"><path d="M4 8a6 6 0 0 1 4.03-5.67 2 2 0 1 1 3.95 0A6 6 0 0 1 16 8v6l3 2v1H1v-1l3-2V8zm8 10a2 2 0 1 1-4 0h4z"/></symbol><symbol viewBox="0 0 96.704 96.704" xml:space="preserve" id="portfolio" xmlns="http://www.w3.org/2000/svg"><path d="M95.609 46.765h-31.13c-.604 0-1.094.49-1.094 1.093v13.5a2.189 2.189 0 0 1-2.187 2.187H35.505a2.19 2.19 0 0 1-2.187-2.187v-13.5c0-.604-.489-1.093-1.094-1.093H1.093c-.604 0-1.093.49-1.093 1.093v44.796c0 .604.489 1.093 1.093 1.093h94.516c.604 0 1.095-.489 1.095-1.093V47.858c0-.603-.49-1.093-1.095-1.093z"/><path d="M56.27 58.109c.5 0 .904-.404.904-.903v-8.37c0-.5-.404-.904-.904-.904H40.434c-.5 0-.904.405-.904.904v8.37c0 .5.404.903.904.903H56.27zM95.609 14.3H65.436V6.237a3.28 3.28 0 0 0-3.279-3.28H34.548a3.28 3.28 0 0 0-3.28 3.28V14.3H1.093C.489 14.3 0 14.79 0 15.394v25.11c0 .604.489 1.093 1.093 1.093h94.516c.604 0 1.095-.489 1.095-1.093v-25.11c0-.604-.49-1.094-1.095-1.094zm-57.78-4.783h21.047V14.3H37.829V9.517z"/></symbol><symbol viewBox="0 0 32.219 32.219" xml:space="preserve" id="watchlist" xmlns="http://www.w3.org/2000/svg"><path style="fill:#030104" d="M32.144 12.402c-.493-1.545-3.213-1.898-6.09-2.277-1.578-.209-3.373-.445-3.914-.844-.543-.398-1.304-2.035-1.978-3.482C18.94 3.17 17.786.686 16.166.68l-.03-.003c-1.604.027-2.773 2.479-4.016 5.082-.684 1.439-1.463 3.07-2.005 3.463-.551.394-2.342.613-3.927.803-2.877.352-5.598.68-6.108 2.217-.507 1.539 1.48 3.424 3.587 5.424 1.156 1.094 2.465 2.34 2.67 2.98.205.639-.143 2.414-.448 3.977-.557 2.844-1.084 5.535.219 6.5.312.225.704.338 1.167.328 1.331-.023 3.247-1.059 5.096-2.062 1.387-.758 2.961-1.611 3.661-1.621.675.002 2.255.881 3.647 1.654 1.891 1.051 3.852 2.139 5.185 2.119.414-.01.771-.117 1.06-.322 1.312-.947.814-3.639.285-6.494-.289-1.564-.615-3.344-.409-3.982.213-.639 1.537-1.867 2.702-2.955 2.126-1.98 4.132-3.843 3.642-5.386zm-10.671 6.953h-3.722v3.797h-3.237v-3.797h-3.768v-3.238h3.768v-3.691h3.237v3.691h3.722v3.238z"/></symbol></svg>